<svg id="Layer_1" data-name="Layer 1" xmlns="http://www.w3.org/2000/svg" viewBox="0 0 1773.86 531.51"><defs><style>.cls-1{font-size:444.1px;font-family:232MKSDRoundMedium;}.cls-1,.cls-5{fill:#0f83aa;}.cls-2{fill:#e58935;stroke-width:15.25px;}.cls-2,.cls-4{stroke:#0f83aa;}.cls-2,.cls-3,.cls-4{stroke-miterlimit:10;}.cls-3,.cls-4{fill:none;}.cls-3{stroke:#e58935;stroke-width:34.58px;}.cls-4{stroke-width:15.56px;}</style></defs><title>logo</title><text class="cls-1" transform="translate(0 394.35)">Simplifi</text><path class="cls-2" d="M1846.76,758.6c30.25-19.44,11.5-46.24,11.5-46.24l-83.72-148.88-54.65,35.12,83.71,148.88s13.35,30.28,43.6,10.84" transform="translate(-97.77 -240.94)"/><path class="cls-3" d="M1820.78,444.33A148.44,148.44,0,0,1,1672.41,592.7c-81.89,0-148.22-66.48-148.22-148.37A148.19,148.19,0,0,1,1672.41,296.1C1754.3,296.1,1820.78,362.44,1820.78,444.33Z" transform="translate(-97.77 -240.94)"/><path class="cls-4" d="M1831.29,444.32c0,87.69-71.2,158.89-158.89,158.89S1513.68,532,1513.68,444.32A158.68,158.68,0,0,1,1672.4,285.6C1760.09,285.6,1831.29,356.63,1831.29,444.32Z" transform="translate(-97.77 -240.94)"/><path class="cls-5" d="M1621.68,337.61a70.31,70.31,0,0,0,6.89-3.73,47.38,47.38,0,0,1,8-3.2,114.93,114.93,0,0,1,18-4.47,100.4,100.4,0,0,1,30.9-.68l.92.14a84,84,0,0,1,17,4.37l.93.35c2.93,1.18,1.41,3.67.62,5.88-.9,2.52-1.3,7.78-4.7,8.07-2.71.23-5.34-1.82-7.77-2.72a67.45,67.45,0,0,0-11.57-3.35c-6.44-1.15-13-1.63-19.48-2.25-10.69-.47-22-.63-32.62,1C1626.82,337.17,1623.52,336.82,1621.68,337.61Z" transform="translate(-97.77 -240.94)"/><path class="cls-5" d="M1778,390.42a71.53,71.53,0,0,1-3.25-7.13,46.13,46.13,0,0,0-4.43-7.35,115.33,115.33,0,0,0-11.66-14.43,99.94,99.94,0,0,0-24.24-19.17l-.81-.45a83.78,83.78,0,0,0-16.22-6.78l-.95-.28c-3.05-.82-3.34,2.07-4,4.31-.81,2.56-3.66,7-1.12,9.28,2,1.82,5.36,1.76,7.83,2.51a68.3,68.3,0,0,1,11.25,4.3c5.84,3,11.34,6.53,16.9,10,8.81,6.07,17.94,12.77,25.43,20.45C1774.15,387,1777,388.68,1778,390.42Z" transform="translate(-97.77 -240.94)"/></svg>